<?xml version="1.0" encoding="UTF-8" standalone="no"?>
<svg
   xmlns:dc="http://purl.org/dc/elements/1.1/"
   xmlns:cc="http://creativecommons.org/ns#"
   xmlns:rdf="http://www.w3.org/1999/02/22-rdf-syntax-ns#"
   xmlns:svg="http://www.w3.org/2000/svg"
   xmlns="http://www.w3.org/2000/svg"
   xmlns:sodipodi="http://sodipodi.sourceforge.net/DTD/sodipodi-0.dtd"
   xmlns:inkscape="http://www.inkscape.org/namespaces/inkscape"
   width="210mm"
   height="297mm"
   viewBox="0 0 210 297"
   version="1.1"
   id="svg44"
   inkscape:version="1.0.1 (0767f8302a, 2020-10-17)"
   sodipodi:docname="DODGE corte.svg">
  <defs
     id="defs38" />
  <sodipodi:namedview
     id="base"
     pagecolor="#ffffff"
     bordercolor="#666666"
     borderopacity="1.0"
     inkscape:pageopacity="0.0"
     inkscape:pageshadow="2"
     inkscape:zoom="0.5"
     inkscape:cx="578.74206"
     inkscape:cy="672.20397"
     inkscape:document-units="mm"
     inkscape:current-layer="layer1"
     inkscape:document-rotation="0"
     showgrid="false"
     inkscape:window-width="1853"
     inkscape:window-height="1025"
     inkscape:window-x="67"
     inkscape:window-y="27"
     inkscape:window-maximized="1" />
  <metadata
     id="metadata41">
    <rdf:RDF>
      <cc:Work
         rdf:about="">
        <dc:format>image/svg+xml</dc:format>
        <dc:type
           rdf:resource="http://purl.org/dc/dcmitype/StillImage" />
        <dc:title></dc:title>
      </cc:Work>
    </rdf:RDF>
  </metadata>
  <g
     inkscape:label="Capa 1"
     inkscape:groupmode="layer"
     id="layer1">
    <path
       style="fill:#000000;stroke-width:0.264583"
       d="m 189.89063,174.96193 c 0,-0.0814 2.88727,-3.48496 6.41615,-7.56352 3.52888,-4.07857 6.45457,-7.52057 6.50155,-7.64889 0.0482,-0.1316 -4.76421,-0.26579 -11.03924,-0.30783 l -11.12463,-0.0745 -0.60243,-0.60212 c -0.57854,-0.57823 -0.60574,-0.80393 -0.68558,-5.68854 -0.098,-5.99469 0.21525,-9.82979 0.85513,-10.46984 0.39598,-0.39609 2.2169,-0.44991 19.27309,-0.56971 l 18.83579,-0.13229 4.50437,-5.22425 4.50434,-5.22424 9.19427,-0.001 c 5.05685,-7.9e-4 9.19427,0.0514 9.19427,0.11578 0,0.0644 -5.00062,5.91095 -11.1125,12.99238 -8.70627,10.0874 -11.11249,13.02972 -11.11249,13.58836 0,0.86189 -0.43604,1.34805 -1.20907,1.34805 -0.42413,0 -2.32786,2.03645 -7.28927,7.79754 l -6.71521,7.79754 -9.19427,0.008 c -5.05685,0.004 -9.19427,-0.0589 -9.19427,-0.14023 z m 6.94531,-16.18973 c -2.80127,-0.0429 -7.38518,-0.0429 -10.18645,0 -2.80128,0.0429 -0.50933,0.0779 5.09323,0.0779 5.60255,0 7.8945,-0.0351 5.09322,-0.0779 z m 6.2122,0.0382 c -0.0879,-0.0879 -0.31612,-0.0973 -0.50712,-0.0209 -0.21106,0.0845 -0.14837,0.14715 0.15986,0.15985 0.27891,0.0115 0.43518,-0.0511 0.34726,-0.13897 z m 13.38377,-0.038 c -2.35548,-0.0438 -6.28454,-0.0439 -8.73124,-1.8e-4 -2.44672,0.0437 -0.51952,0.0795 4.28267,0.0796 4.80219,1e-4 6.80405,-0.0357 4.44857,-0.0795 z m 6.33823,0.0243 c -0.17912,-0.0725 -0.53631,-0.0769 -0.79375,-0.01 -0.25741,0.0671 -0.11086,0.12638 0.3257,0.13177 0.43656,0.005 0.6472,-0.0495 0.46805,-0.12197 z m -42.14523,-0.49431 c -0.18408,-0.22179 -0.40357,-0.33438 -0.48776,-0.25019 -0.0842,0.0842 0.0221,0.26384 0.23615,0.39921 0.56011,0.35423 0.6333,0.31089 0.25161,-0.14902 z m 41.7319,-0.65852 c -0.0934,-0.35735 0.0345,-0.62562 0.38867,-0.81519 0.29038,-0.15541 0.46805,-0.34249 0.39478,-0.41574 -0.0732,-0.0733 -7.56806,-0.12105 -16.65516,-0.10623 -14.23491,0.0232 -16.56667,-0.0269 -16.84472,-0.36191 -0.1775,-0.21387 -0.34264,-1.11566 -0.36697,-2.00397 l -0.0442,-1.61511 -3.88279,-0.0512 -3.88279,-0.0512 -0.1521,0.76068 c -0.22213,1.11089 -0.17828,4.21243 0.065,4.59548 0.16303,0.25672 4.68531,0.34435 20.56731,0.39854 11.19707,0.0382 20.40198,0.0985 20.45532,0.13395 0.0534,0.0355 0.0343,-0.17521 -0.0423,-0.46815 z m -42.32725,-3.62867 c -0.0573,-0.54895 -0.1051,-0.16465 -0.10627,0.85399 -0.001,1.01865 0.0457,1.46779 0.10413,0.99809 0.0584,-0.46969 0.0594,-1.30313 0.002,-1.85208 z m 27.21371,0.65556 c 0.43323,-0.47295 1.01082,-1.12779 1.28354,-1.45521 l 0.49584,-0.59531 h -8.75336 c -7.60482,0 -8.80791,0.0545 -9.16913,0.41577 -0.56178,0.56177 -0.53379,1.87045 0.0472,2.20887 0.28368,0.16522 3.33806,0.2728 7.8856,0.27773 l 7.42258,0.008 0.78769,-0.8599 z m 12.92006,-4.23464 c -0.0888,-0.28104 0.0172,-0.5272 0.26842,-0.62362 0.22834,-0.0876 0.41513,-0.26562 0.41513,-0.39557 0,-0.13585 -6.3315,-0.23628 -14.89604,-0.23628 -11.56349,0 -14.97027,0.074 -15.22783,0.33073 -0.26558,0.26474 -0.43665,0.19875 -0.85737,-0.33073 -0.72443,-0.9117 -0.58007,-3.21662 0.25369,-4.05061 l 0.57943,-0.5796 15.47094,-0.0743 c 14.01027,-0.0673 15.47093,-0.11449 15.47093,-0.5 0,-0.23413 0.20005,-0.57197 0.44455,-0.75076 1.11194,-0.81307 -0.51009,-0.87791 -20.87966,-0.83467 -22.99796,0.0488 -21.07368,-0.15979 -21.31101,2.31025 -0.13209,1.3746 -0.12961,1.38006 0.5661,1.24707 l 0.69877,-0.13358 v 2.19063 c 0,1.20484 0.0672,2.36579 0.14937,2.57987 0.12977,0.33818 2.6978,0.38441 19.57532,0.35237 18.3915,-0.0349 19.41814,-0.0616 19.27926,-0.5012 z m -6.51166,-3.10768 1.13916,-1.32279 h -11.77934 c -11.37508,0 -11.78872,0.0176 -12.05322,0.51178 -0.30884,0.57707 -0.36431,1.69086 -0.0975,1.95767 0.097,0.097 5.00834,0.17633 10.91406,0.17626 l 10.73768,-1.3e-4 z m -21.44593,-1.76976 c -0.25466,-0.0665 -0.67138,-0.0665 -0.92605,0 -0.25466,0.0666 -0.0463,0.12101 0.46303,0.12101 0.50932,0 0.71768,-0.0545 0.46302,-0.12101 z m 3.83645,-0.0113 c -0.61846,-0.0557 -1.63049,-0.0557 -2.24895,0 -0.61847,0.0557 -0.11245,0.10129 1.12448,0.10129 1.23692,0 1.74294,-0.0456 1.12447,-0.10129 z m 19.82171,29.32279 c 0.0685,-0.18618 33.83614,-39.42733 36.73298,-42.68715 l 0.66146,-0.74434 9.22396,0.0736 9.22395,0.0736 -18.74895,21.74643 -18.74896,21.74642 -9.21631,0.0156 c -5.40192,0.009 -9.17982,-0.0837 -9.12813,-0.22414 z M 32.066681,159.99045 c -8.86713,-0.503 -15.07786,-2.32462 -17.56699,-5.15241 -2.22432,-2.52696 -2.13116,-5.68021 0.23813,-8.05986 3.62134,-3.63718 11.76779,-5.20754 25.53094,-4.92152 11.63783,0.24186 18.18332,1.73332 21.65633,4.93462 2.68768,2.47743 2.6791,5.99143 -0.021,8.61378 -2.75489,2.67551 -8.47878,4.10927 -18.46029,4.62407 -5.53014,0.28522 -5.67595,0.28473 -11.37708,-0.0387 z m 12.70451,-0.80991 c 2.32585,-0.1754 4.783,-0.32423 5.46033,-0.33073 0.67732,-0.007 1.18077,-0.0939 1.11876,-0.19424 -0.062,-0.10033 0.0982,-0.17995 0.35599,-0.17693 0.96206,0.0113 4.76626,-1.16376 6.58797,-2.03489 1.84753,-0.88349 3.53806,-2.39873 3.53806,-3.17121 0,-0.21322 0.11533,-0.38767 0.25628,-0.38767 0.14095,0 0.19939,-0.14883 0.12986,-0.33073 -0.19234,-0.50317 -7.45668,-0.30944 -7.9789,0.21278 -0.2104,0.21039 -0.61215,0.39742 -0.8928,0.41561 -1.15159,0.0746 -1.49985,0.17497 -2.89152,0.83306 -0.80037,0.37848 -1.8124,0.75925 -2.24896,0.84615 -0.43656,0.0869 -0.0396,-0.13237 0.88209,-0.48728 2.4769,-0.95375 3.98527,-2.62536 3.63354,-4.02678 -0.45285,-1.80427 -2.56714,-3.08303 -6.61104,-3.99847 -2.65596,-0.60124 -12.14555,-0.59502 -15.08043,0.01 -4.01133,0.82677 -6.50579,2.48287 -6.50338,4.31765 0.003,2.49134 3.47762,4.25271 9.5622,4.84769 l 2.47535,0.24205 -2.6556,-0.11553 c -1.46058,-0.0635 -3.54417,-0.34213 -4.63021,-0.61908 -1.08603,-0.27695 -2.0823,-0.43821 -2.21392,-0.35836 -0.13163,0.0798 -0.16207,0.0202 -0.0677,-0.13255 0.0944,-0.15276 -0.0124,-0.34838 -0.23745,-0.43473 -0.23584,-0.0905 -0.34014,-0.0454 -0.24629,0.10644 0.2666,0.43137 -0.63356,0.61262 -1.13088,0.2277 -0.33992,-0.26311 -0.32182,-0.19041 0.0695,0.27909 l 0.52917,0.63487 -0.88453,-0.50713 c -0.48649,-0.27893 -1.2959,-0.96032 -1.79869,-1.5142 l -0.91416,-1.00708 -3.82374,-0.0513 c -2.10305,-0.0282 -3.82372,0.044 -3.8237,0.16031 6e-5,0.45712 0.78422,1.67489 1.49776,2.326 1.18609,1.08231 2.43783,1.73655 4.91545,2.56912 1.26641,0.42556 2.22038,0.85592 2.11994,0.95637 -0.10044,0.10043 -2.6e-4,0.11266 0.2225,0.0272 0.2228,-0.0855 1.52886,0.0351 2.90234,0.26803 1.37349,0.23292 3.7474,0.48968 5.27537,0.57059 1.52797,0.0809 2.82774,0.19213 2.88837,0.24715 0.23433,0.21266 6.18077,0.0852 10.21302,-0.21886 z m -6.54986,-3.3078 c 0.32911,-0.0633 0.80536,-0.0609 1.05833,0.005 0.25296,0.0662 -0.0163,0.11801 -0.5984,0.11507 -0.58208,-0.003 -0.78905,-0.0571 -0.45993,-0.1204 z m 3.44123,-0.26921 c 0.47555,-0.0589 1.18993,-0.0577 1.5875,0.003 0.39758,0.0604 0.008,0.10855 -0.86463,0.10707 -0.87313,-0.002 -1.19842,-0.0509 -0.72287,-0.10977 z m 3.30759,-0.25618 c 0.25743,-0.0671 0.61462,-0.0627 0.79375,0.01 0.17913,0.0725 -0.0315,0.12736 -0.46806,0.12197 -0.43656,-0.005 -0.58312,-0.0647 -0.32569,-0.13178 z m 1.45017,-0.25646 c 0.1819,-0.0734 0.47956,-0.0734 0.66146,0 0.1819,0.0734 0.0331,0.13345 -0.33073,0.13345 -0.3638,0 -0.51263,-0.0601 -0.33073,-0.13345 z m -27.47256,1.92754 c -0.26936,-0.24376 -2.35921,-1.22043 -2.35921,-1.10255 0,0.16232 1.89323,1.17454 2.22691,1.19063 0.1334,0.006 0.19293,-0.0332 0.1323,-0.0881 z m 40.65116,-0.57628 c 0.48427,-0.38798 0.47583,-0.39349 -0.14787,-0.0965 -0.8099,0.38571 -0.96,0.50792 -0.62383,0.50792 0.14196,0 0.48923,-0.18516 0.7717,-0.41147 z m 1.2088,-0.8453 c 0.32911,-0.41965 0.31975,-0.429 -0.0999,-0.0999 -0.44073,0.34565 -0.58089,0.56292 -0.36313,0.56292 0.0549,0 0.2633,-0.20836 0.46303,-0.46302 z m -44.76032,-0.21289 c -0.18775,-0.22622 -0.58928,-0.53445 -0.8923,-0.68495 -0.3302,-0.16402 -0.23292,-0.003 0.24283,0.4018 0.91075,0.77501 1.14097,0.87538 0.64947,0.28315 z m 46.34045,-1.25032 0.58019,-0.8519 -0.83245,0.87623 c -0.8222,0.86544 -1.07067,1.2866 -0.58019,0.98347 0.13874,-0.0857 0.51335,-0.53926 0.83245,-1.0078 z m -9.55138,-1.14496 c 0,-0.21898 -0.51375,-0.34281 -0.63154,-0.15222 -0.0764,0.12364 0.0344,0.2248 0.2463,0.2248 0.21188,0 0.38524,-0.0327 0.38524,-0.0726 z m -30.2423,-3.17067 c 0.75889,-2.27884 2.90119,-3.65373 7.25771,-4.65787 2.15509,-0.49672 3.29263,-0.57288 8.69709,-0.58224 5.36381,-0.009 6.56515,0.0656 8.74766,0.54495 4.44856,0.97714 6.58997,2.38571 7.25954,4.77513 l 0.28093,1.00251 3.67505,0.0739 c 2.1599,0.0434 3.78227,-0.0333 3.93511,-0.18616 0.50571,-0.5057 -0.58587,-2.59816 -2.02512,-3.88197 -0.80591,-0.71888 -1.09619,-1.09291 -0.7065,-0.91035 l 0.66145,0.30988 -0.66145,-0.54389 c -1.42733,-1.17363 -5.725,-2.42538 -10.71373,-3.12051 -4.42815,-0.61702 -17.44615,-0.61296 -21.96422,0.007 -5.27418,0.72353 -8.87449,1.85709 -10.71372,3.37321 l -0.66146,0.54526 0.92604,-0.44945 c 0.91119,-0.44223 0.90406,-0.42607 -0.44436,1.00684 -1.3344,1.41803 -1.97919,2.93348 -1.54621,3.63406 0.11897,0.1925 1.42268,0.26444 3.90712,0.21561 l 3.72858,-0.0733 0.36049,-1.08248 z m -59.98062,9.70785 c -2.27972,-0.18748 -3.09902,-0.55763 -3.33751,-1.50784 -0.29088,-1.15895 0.0331,-14.20297 0.3681,-14.8203 0.65185,-1.20123 0.96835,-1.22132 17.17744,-1.09044 16.2419996,0.13115 18.1696596,0.26348 22.43676962,1.54026 4.04632998,1.21072 6.97545998,3.53103 7.48733998,5.9311 0.48585,2.27799 -0.58377,5.20019 -2.41458,6.59662 -2.11284,1.61154 -6.04679,2.65416 -11.5031,3.04867 -4.0892396,0.29567 -27.4517896,0.52914 -30.2144596,0.30193 z m -1.12999,-0.71543 c -0.0879,-0.0879 -0.31612,-0.0973 -0.50712,-0.0209 -0.21106,0.0845 -0.14837,0.14715 0.15986,0.15985 0.27891,0.0115 0.43518,-0.0511 0.34726,-0.13897 z m 25.67484,-0.0292 c -0.39758,-0.0604 -1.11195,-0.0616 -1.5875,-0.003 -0.47555,0.0589 -0.15026,0.10829 0.72286,0.10977 0.87313,0.002 1.26221,-0.0467 0.86464,-0.10707 z m 1.97963,0.0138 c -0.1819,-0.0734 -0.47955,-0.0734 -0.66146,0 -0.1819,0.0734 -0.0331,0.13345 0.33073,0.13345 0.36381,0 0.51263,-0.06 0.33073,-0.13345 z m 1.1851196,0.0154 c -0.0879,-0.0879 -0.31613,-0.0973 -0.5071196,-0.0209 -0.21107,0.0845 -0.14838,0.14715 0.15985,0.15985 0.2789096,0.0115 0.4351796,-0.0511 0.3472696,-0.13897 z M -39.713679,158.3739 c -0.15145,-0.18248 -0.32557,-0.74803 -0.38693,-1.25677 l -0.11157,-0.92498 -0.0423,0.93927 c -0.0233,0.5166 0.10054,1.08215 0.27516,1.25677 0.41923,0.41923 0.61666,0.40861 0.26568,-0.0143 z m 33.7495896,0.15 c -0.25297,-0.0662 -0.72922,-0.0686 -1.05833,-0.005 -0.32912,0.0633 -0.12215,0.11747 0.45993,0.1204 0.58209,0.003 0.85136,-0.0488 0.5984,-0.11506 z m 2.56135,-0.3227 c 0.0815,-0.13195 -0.09,-0.17759 -0.38126,-0.10143 -0.6178,0.16155 -0.69589,0.34134 -0.14827,0.34134 0.20969,0 0.44798,-0.10796 0.52953,-0.23991 z m -4.74725,-0.30868 c 7.18036002,-0.48208 11.21519,-1.85425 12.44492,-4.23229 0.73243,-1.41637 0.68708,-1.43683 -3.1845,-1.43683 -1.96452998,0 -3.57188,0.0754 -3.57188,0.16759 0,0.30531 -1.32261,0.43093 -1.3313,0.12645 -0.005,-0.16172 -0.25616,0.0382 -0.559,0.44423 -0.30284,0.40604 -1.14666,1.0403 -1.87516,1.40946 -2.49924,1.26646 -4.1685296,1.46598 -13.5009996,1.61373 -9.20291,0.14568 -9.91298,0.0732 -10.46485,-1.06831 -0.15329,-0.31707 -0.28676,-0.42063 -0.29661,-0.23014 -0.01,0.19049 -0.13697,0.27276 -0.28249,0.18282 -0.14552,-0.0899 -0.27295,-0.008 -0.28318,0.18283 -0.0397,0.73922 -0.4744,-0.76659 -0.49198,-1.70418 l -0.0186,-0.99219 h -3.54243 -3.54242 l -0.1795,0.95679 c -0.0987,0.52624 -0.15339,1.62757 -0.12148,2.4474 0.10402,2.67282 -1.31158,2.42976 13.94595,2.39454 7.37876,-0.017 14.96374,-0.13488 16.8555096,-0.2619 z m 7.46897002,-0.14043 c -0.0879,-0.0879 -0.31612,-0.0973 -0.50712002,-0.0209 -0.21107,0.0845 -0.14837,0.14716 0.15985,0.15985 0.27892002,0.0115 0.43519002,-0.051 0.34727002,-0.13896 z m 1.05833,-0.26458 c -0.0879,-0.0879 -0.31612,-0.0973 -0.50712,-0.0209 -0.21106,0.0845 -0.14837,0.14716 0.15986,0.15985 0.27891,0.0115 0.43518,-0.0511 0.34726,-0.13896 z m 5.15389998,-3.41203 c 0.15081,-0.29104 0.17,-0.4101 0.0426,-0.26458 -0.12736,0.14552 -0.64794,0.74059 -1.15686,1.32236 l -0.92531,1.05778 0.88266,-0.79319 c 0.48547,-0.43626 1.00606,-1.03132 1.15687,-1.32237 z m -14.53302,0.8344 c 3.15353,-0.89693 4.68496,-2.19354 4.68729,-3.96857 0.002,-1.91142 -1.86354,-3.26935 -5.55526,-4.04259 -1.8740096,-0.39251 -3.6470896,-0.47314 -10.6349896,-0.4836 -5.31549,-0.008 -8.48445,0.0854 -8.65481,0.25497 -0.15239,0.15168 -0.29734,2.02036 -0.33474,4.3156 -0.0539,3.30778 0.005,4.09548 0.32043,4.30729 0.24129,0.16186 3.81455,0.22028 9.51453,0.15555 7.44206,-0.0845 9.41062,-0.184 10.6575496,-0.53865 z m -22.4645796,-4.70393 c 0.091,-0.45475 0.16536,-1.51312 0.16536,-2.35194 0,-1.87607 0.51394,-2.61357 2.01222,-2.88755 0.58684,-0.10731 4.80924,-0.15487 9.38311,-0.10569 9.12271,0.0981 12.0955196,0.41701 14.4256996,1.54753 1.70214,0.82582 2.19018,1.37132 2.77577,3.10251 l 0.47007,1.38967 3.50382,0.0742 c 3.81083,0.0806 4.03977,-5.3e-4 3.66666,-1.30163 -0.30994,-1.08068 -1.29477,-2.25044 -2.65368,-3.15196 -1.25168,-0.83038 -1.20769,-0.89844 0.34728,-0.53732 2.55662,0.59374 -0.9084,-1.29061 -3.86455,-2.10162 -4.27659,-1.17327 -6.95432,-1.35704 -21.9181996,-1.50427 -7.815,-0.0769 -14.63797,-0.0593 -15.16215,0.039 -1.49916,0.28124 -1.98257,0.94825 -1.97783,2.72897 0.002,0.83674 0.0915,1.3936 0.19844,1.23747 0.10691,-0.15614 0.40274,-0.36076 0.6574,-0.45472 0.41775,-0.15413 0.46302,0.0461 0.46302,2.04818 0,1.22046 0.0723,2.40735 0.1606,2.63753 0.13528,0.35253 0.71406,0.41852 3.6711,0.41852 h 3.51049 z m 104.74819,9.31487 c -1.7936,-0.12663 -2.28238,-0.26017 -2.77812,-0.75901 -0.59872,-0.60247 -0.60139,-0.64012 -0.56032,-7.90661 l 0.0413,-7.30126 0.69284,-0.69235 0.69284,-0.69236 15.40548,0.005 c 13.479839,0.005 15.785809,0.0645 18.448189,0.4791 9.31633,1.45091 13.52488,4.99459 12.04197,10.13958 -0.35487,1.23123 -0.73289,1.82638 -1.85232,2.91627 -1.18517,1.1539 -1.75379,1.47907 -3.61414,2.06675 -3.99473,1.26194 -6.39424,1.48131 -18.878639,1.72598 -12.70105,0.24891 -16.32923,0.25236 -19.63904,0.0187 z m 25.79061,-0.74502 c -0.69123,-0.0545 -1.82232,-0.0545 -2.51355,0 -0.69122,0.0545 -0.12567,0.0991 1.25677,0.0991 1.38245,0 1.948,-0.0446 1.25678,-0.0991 z m 2.375729,0.0346 c -0.0879,-0.0879 -0.31612,-0.0973 -0.50712,-0.0209 -0.21106,0.0845 -0.14837,0.14715 0.15986,0.15985 0.27891,0.0115 0.43518,-0.0511 0.34726,-0.13897 z m -30.725629,-1.04751 c -0.16019,-0.51854 -0.32854,-0.7629 -0.37413,-0.54304 -0.0738,0.35609 0.36861,1.48582 0.58188,1.48582 0.0459,0 -0.0476,-0.42425 -0.20775,-0.94278 z m 34.303019,0.76755 c -0.1819,-0.0734 -0.47956,-0.0734 -0.66146,0 -0.1819,0.0734 -0.0331,0.13346 0.33073,0.13346 0.3638,0 0.51263,-0.0601 0.33073,-0.13346 z m 2.24345,-0.2492 c -0.0879,-0.0879 -0.31613,-0.0973 -0.50712,-0.0209 -0.21107,0.0845 -0.14837,0.14716 0.15985,0.15985 0.27891,0.0115 0.43519,-0.051 0.34727,-0.13896 z m -4.82684,-0.39305 c 3.81725,-0.24245 6.83513,-0.77897 9.09098,-1.61619 1.76453,-0.65488 3.74475,-2.46219 3.74553,-3.41849 l 5.3e-4,-0.63013 -3.77083,0.17759 c -4.85909,0.22883 -5.08866,0.2654 -5.81009,0.92539 -0.69686,0.63751 -2.31936,1.50576 -2.49173,1.33339 -0.0639,-0.0639 0.24537,-0.26594 0.68727,-0.44898 1.3734,-0.56889 2.3885,-1.96449 2.3885,-3.28383 0,-1.97214 -1.39796,-3.14195 -4.82032,-4.03362 -1.32814,-0.34605 -3.473729,-0.45679 -10.681759,-0.55134 -8.14844,-0.10688 -9.0622,-0.0759 -9.45885,0.32076 -0.3695,0.36949 -0.43907,1.0598 -0.43907,4.35652 0,4.34909 0.0193,4.40058 1.72315,4.58808 0.87204,0.096 0.82667,0.11086 -0.26163,0.0859 -1.05516,-0.0242 -1.3712,-0.14033 -1.59151,-0.58466 -0.20145,-0.40626 -0.41525,-0.5043 -0.80006,-0.36684 -0.66716,0.2383 -0.91284,-0.13473 -0.91798,-1.39384 l -0.004,-0.99219 h -3.57188 -3.57187 v 2.73403 c 0,1.50372 0.0814,2.81538 0.18078,2.91481 0.25073,0.25073 26.15815,0.15152 30.374889,-0.11632 z m -17.389569,-2.01548 c 0.32912,-0.0633 0.80537,-0.0609 1.05834,0.005 0.25296,0.0662 -0.0163,0.11801 -0.5984,0.11507 -0.58208,-0.003 -0.78905,-0.0571 -0.45994,-0.1204 z m 8.31972,-0.27339 c 0.9759,-0.0508 2.64277,-0.0511 3.70417,-7.9e-4 1.06139,0.0504 0.26292,0.0919 -1.77437,0.0923 -2.03729,5.3e-4 -2.9057,-0.0408 -1.9298,-0.0915 z m 6.23237,-0.25578 c 0.32912,-0.0633 0.805359,-0.0609 1.058329,0.005 0.25297,0.0662 -0.0163,0.118 -0.5984,0.11507 -0.582079,-0.003 -0.789049,-0.0571 -0.459929,-0.12041 z m 1.865529,-0.25819 c 0.191,-0.0764 0.4192,-0.067 0.50712,0.0209 0.0879,0.0879 -0.0684,0.15045 -0.34727,0.13896 -0.30822,-0.0127 -0.37091,-0.0754 -0.15985,-0.15985 z m 8.44462,2.66672 c -0.0879,-0.0879 -0.31612,-0.0973 -0.50712,-0.0209 -0.21106,0.0845 -0.14837,0.14716 0.15985,0.15985 0.27892,0.0115 0.43519,-0.051 0.34727,-0.13896 z m 1.85208,-0.52917 c -0.0879,-0.0879 -0.31612,-0.0973 -0.50712,-0.0209 -0.21106,0.0845 -0.14837,0.14715 0.15986,0.15985 0.27891,0.0115 0.43518,-0.0511 0.34726,-0.13897 z m 4.01812,-2.5885 c 0.44882,-0.56572 0.81242,-1.16103 0.80799,-1.32292 -0.004,-0.16189 -0.13895,-0.0562 -0.29896,0.23482 -0.16,0.29104 -0.72192,0.99165 -1.24872,1.5569 -0.5268,0.56526 -0.75948,0.92244 -0.51708,0.79375 0.2424,-0.12869 0.80794,-0.69684 1.25677,-1.26255 z m -45.299319,-0.49279 c -0.0631,-0.32742 -0.11466,-0.0595 -0.11466,0.59531 0,0.65485 0.0516,0.92274 0.11466,0.59532 0.0631,-0.32743 0.0631,-0.86321 0,-1.19063 z m 8.64375,-3.93568 c 0.0909,-0.45475 0.16536,-1.51312 0.16536,-2.35194 0,-1.89388 0.51058,-2.61296 2.056,-2.89556 1.87314,-0.34252 17.36396,-0.0278 19.999039,0.40634 4.17734,0.68822 6.04981,1.8891 6.65282,4.26671 l 0.32184,1.26898 3.52174,0.0741 c 1.93696,0.0408 3.63263,-0.0367 3.76817,-0.17229 0.70388,-0.70388 -0.97359,-3.2852 -2.98211,-4.58892 l -0.66146,-0.42935 0.92604,0.13153 c 0.50933,0.0723 1.2237,0.30787 1.5875,0.52339 l 0.66146,0.39187 -0.65893,-0.57265 c -0.83974,-0.72979 -2.67374,-1.64851 -4.36815,-2.18819 -4.34542,-1.38404 -11.293249,-1.82779 -26.893809,-1.71769 -12.86349,0.0908 -12.41799,0.024 -12.77281,1.91536 -0.22031,1.17435 0.045,1.7783 0.7393,1.68298 0.53642,-0.0736 0.56628,0.0434 0.63846,2.50243 l 0.0757,2.57969 h 3.52923 3.52922 z m 65.385149,9.16674 c -0.14552,-0.0536 -2.22911,-0.15867 -4.63021,-0.23345 -9.13176,-0.28436 -14.94123,-2.62355 -16.0971,-6.48151 -1.19848,-4.00018 1.11053,-7.24299 6.33204,-8.89279 4.40027,-1.39032 6.22844,-1.51673 23.95032,-1.65605 12.04442,-0.0947 16.5852,-0.0484 16.99948,0.17332 0.47028,0.25168 0.56526,0.54286 0.56526,1.7328 0,0.78666 -0.11899,1.50383 -0.26443,1.59371 -0.14543,0.0899 -6.6641,0.19788 -14.48593,0.24 -15.35058,0.0826 -16.92928,0.20915 -19.64547,1.57431 -3.2032,1.60993 -3.18044,5.05035 0.0438,6.61522 2.55759,1.24134 5.26324,1.50792 14.51519,1.43015 l 8.32751,-0.07 0.0854,-1.04778 c 0.13954,-1.71134 0.0556,-1.73034 -7.64577,-1.73034 h -6.79774 l -0.15953,-0.59532 c -0.24343,-0.90834 -0.19723,-2.02839 0.10712,-2.59708 0.26506,-0.49526 0.6386,-0.50973 11.57553,-0.44861 l 11.30162,0.0632 -11.08892,0.0721 c -7.8756,0.0512 -11.19523,0.16029 -11.45576,0.3765 -0.29757,0.24697 -0.30202,0.34555 -0.0236,0.52218 0.46467,0.29477 24.81721,0.28854 24.81721,-0.006 0,-0.39125 -0.62112,-0.77342 -1.45521,-0.89538 l -0.79375,-0.11606 0.8599,-0.0396 c 0.54792,-0.0253 1.05187,0.15233 1.38906,0.48952 0.47895,0.47895 0.52916,0.88194 0.52916,4.24647 0,3.8913 -0.24412,4.95707 -1.24698,5.44395 -0.44661,0.21682 -25.04515,0.44447 -25.60822,0.23699 z m 0.5898,-0.56227 c -0.0879,-0.0879 -0.31612,-0.0973 -0.50712,-0.0209 -0.21106,0.0845 -0.14837,0.14715 0.15986,0.15985 0.27891,0.0115 0.43518,-0.0511 0.34726,-0.13897 z m -6.35,-0.26458 c -0.0879,-0.0879 -0.31612,-0.0973 -0.50712,-0.0209 -0.21106,0.0845 -0.14837,0.14716 0.15986,0.15985 0.27891,0.0115 0.43518,-0.051 0.34726,-0.13896 z m 31.59083,-0.30317 c 0.3291,-0.41964 0.31975,-0.429 -0.0999,-0.0999 -0.25466,0.19972 -0.46302,0.40808 -0.46302,0.46302 0,0.21776 0.21727,0.0776 0.56292,-0.36313 z m -0.92185,-0.46577 c 0.40892,-0.1234 0.68862,-2.90291 0.43305,-4.3034 l -0.20641,-1.13114 -4.11542,-0.0595 -4.11541,-0.0595 0.181,1.19063 c 0.2084,1.3708 -0.0846,2.38125 -0.69049,2.38125 -0.26481,0 -0.34591,-0.12173 -0.22034,-0.33073 0.1388,-0.23103 0.0658,-0.22293 -0.24232,0.0269 -0.35923,0.2913 -2.2453,0.33378 -10.1711,0.22908 -5.45142,-0.072 -10.18186,-0.24958 -10.75747,-0.40382 -0.58303,-0.15623 -1.27541,-0.18099 -1.60089,-0.0572 -0.31543,0.11993 -0.91039,0.15365 -1.32213,0.0749 -0.75137,-0.14363 -2.88726,-1.99344 -3.10443,-2.68861 -0.0917,-0.2934 -0.87714,-0.37675 -3.74011,-0.39688 l -3.62409,-0.0255 -2.6e-4,0.64067 c -5.3e-4,1.07517 2.06767,2.81321 4.09177,3.43839 3.55572,1.09825 6.16899,1.41649 13.10576,1.59598 6.36649,0.16473 25.44519,0.0759 26.0994,-0.12153 z m 1.33603,-1.38128 c -0.0671,-0.25743 -0.12638,-0.11086 -0.13177,0.3257 -0.005,0.43656 0.0495,0.64718 0.12197,0.46805 0.0725,-0.17913 0.0769,-0.53631 0.01,-0.79375 z m -41.06147,0.45799 c -0.72737,-0.31256 -1.14511,-0.31256 -0.66146,0 0.21828,0.14106 0.57547,0.24994 0.79375,0.24193 0.26169,-0.01 0.21662,-0.092 -0.13229,-0.24193 z m 28.6562,-5.83223 c 6.82384,-0.0107 11.16359,-0.11474 11.16359,-0.26763 0,-0.27889 -21.35222,-0.35855 -22.7211,-0.0848 -0.57755,0.11551 -0.82682,0.31677 -0.82682,0.66756 0,0.46365 0.0469,0.4715 0.61037,0.10226 0.51913,-0.34014 2.27907,-0.40254 11.77396,-0.41741 z m -25.14547,-0.36843 c 0.0796,-0.0796 0.3074,-0.01 0.50621,0.15524 0.44061,0.36568 0.51844,0.29763 0.75988,-0.66434 0.17785,-0.7086 0.15452,-0.73676 -0.37537,-0.45317 -0.46647,0.24965 -0.565,0.22926 -0.565,-0.11694 0,-1.39523 2.09449,-3.3052 4.36353,-3.97913 2.58482,-0.76772 4.65563,-0.87479 18.54669,-0.95899 13.58596,-0.0823 14.04244,-0.10142 13.91717,-0.58162 -0.0763,-0.29252 0.0498,-0.59683 0.30696,-0.74075 0.24007,-0.13435 0.43649,-0.36505 0.43649,-0.51266 0,-0.17987 -5.78145,-0.23222 -17.52865,-0.15873 -14.90423,0.0932 -17.86536,0.17517 -19.7776,0.54714 -2.86147,0.55662 -5.72797,1.58098 -6.74688,2.41104 l -0.79375,0.64664 1.00796,-0.26958 c 1.53354,-0.41014 1.65515,-0.1787 0.3788,0.72096 -0.63585,0.44819 -1.35682,1.23789 -1.60216,1.75489 -0.49607,1.0454 -0.58711,2.22399 -0.18225,2.35934 0.432,0.14442 7.19077,-0.002 7.34797,-0.15934 z"
       id="path60" />
    <rect
       style="fill:none;stroke:#ff0000;stroke-width:0.0266562;stroke-miterlimit:4;stroke-dasharray:none;stroke-dashoffset:0;stroke-opacity:1"
       id="rect62"
       width="317.97604"
       height="46.525475"
       x="-46.269806"
       y="131.58588" />
  </g>
</svg>
