<?xml version="1.0" encoding="UTF-8" standalone="no"?>
<svg
   xmlns:dc="http://purl.org/dc/elements/1.1/"
   xmlns:cc="http://creativecommons.org/ns#"
   xmlns:rdf="http://www.w3.org/1999/02/22-rdf-syntax-ns#"
   xmlns:svg="http://www.w3.org/2000/svg"
   xmlns="http://www.w3.org/2000/svg"
   xmlns:sodipodi="http://sodipodi.sourceforge.net/DTD/sodipodi-0.dtd"
   xmlns:inkscape="http://www.inkscape.org/namespaces/inkscape"
   width="210mm"
   height="297mm"
   viewBox="0 0 210 297"
   version="1.1"
   id="svg44"
   inkscape:version="1.0.1 (0767f8302a, 2020-10-17)"
   sodipodi:docname="dodge corte en pequeño.svg">
  <defs
     id="defs38" />
  <sodipodi:namedview
     id="base"
     pagecolor="#ffffff"
     bordercolor="#666666"
     borderopacity="1.0"
     inkscape:pageopacity="0.0"
     inkscape:pageshadow="2"
     inkscape:zoom="1"
     inkscape:cx="353.53866"
     inkscape:cy="569.30422"
     inkscape:document-units="mm"
     inkscape:current-layer="layer1"
     inkscape:document-rotation="0"
     showgrid="false"
     inkscape:window-width="1853"
     inkscape:window-height="1025"
     inkscape:window-x="67"
     inkscape:window-y="27"
     inkscape:window-maximized="1" />
  <metadata
     id="metadata41">
    <rdf:RDF>
      <cc:Work
         rdf:about="">
        <dc:format>image/svg+xml</dc:format>
        <dc:type
           rdf:resource="http://purl.org/dc/dcmitype/StillImage" />
        <dc:title></dc:title>
      </cc:Work>
    </rdf:RDF>
  </metadata>
  <g
     inkscape:label="Capa 1"
     inkscape:groupmode="layer"
     id="layer1">
    <path
       style="fill:#000000;stroke-width:0.159368"
       d="m 132.51736,169.7075 c 0,-0.06 1.42263,-2.5661 3.16141,-5.56927 1.73877,-3.00319 3.18033,-5.53765 3.20348,-5.63214 0.0238,-0.0969 -2.34745,-0.1957 -5.43933,-0.22666 l -5.48139,-0.0549 -0.29683,-0.44337 c -0.28507,-0.42577 -0.29847,-0.59195 -0.33781,-4.18866 -0.0483,-4.41409 0.10607,-7.23801 0.42135,-7.7093 0.19511,-0.29164 1.09232,-0.33128 9.49636,-0.41949 l 9.28088,-0.0974 2.21942,-3.8468 2.2194,-3.84678 4.53026,-7.4e-4 c 2.49164,-5.8e-4 4.53026,0.0378 4.53026,0.0852 0,0.0474 -2.46394,4.35242 -5.47542,9.56673 -4.28981,7.42769 -5.47541,9.59422 -5.47541,10.00556 0,0.63465 -0.21486,0.99262 -0.59574,0.99262 -0.20899,0 -1.147,1.4995 -3.59161,5.74159 l -3.30877,5.74159 -4.53025,0.005 c -2.49165,0.003 -4.53026,-0.0434 -4.53026,-0.10327 z m 3.42213,-11.92104 c -1.38025,-0.0316 -3.63886,-0.0316 -5.01913,0 -1.38026,0.0315 -0.25095,0.0574 2.50957,0.0574 2.76052,0 3.88983,-0.0258 2.50956,-0.0574 z m 3.06092,0.0281 c -0.0433,-0.0647 -0.15576,-0.0716 -0.24987,-0.0153 -0.104,0.0622 -0.0731,0.10835 0.0787,0.11771 0.13742,0.009 0.21442,-0.0376 0.1711,-0.1023 z m 6.59453,-0.028 c -1.16061,-0.0323 -3.09655,-0.0323 -4.3021,-1.3e-4 -1.20557,0.0322 -0.25599,0.0585 2.11017,0.0587 2.36617,7e-5 3.35254,-0.0263 2.19193,-0.0585 z m 3.12302,0.0179 c -0.0883,-0.0534 -0.26426,-0.0566 -0.39111,-0.008 -0.12683,0.0494 -0.0547,0.093 0.16048,0.097 0.21511,0.003 0.3189,-0.0364 0.23063,-0.0898 z m -20.76606,-0.36397 c -0.0907,-0.16331 -0.19885,-0.24622 -0.24034,-0.18423 -0.0415,0.062 0.0108,0.19427 0.11637,0.29395 0.27597,0.26083 0.31204,0.22892 0.12397,-0.10972 z m 20.56239,-0.48489 c -0.0461,-0.26314 0.017,-0.46068 0.19151,-0.60027 0.14308,-0.11443 0.23062,-0.25218 0.19452,-0.30612 -0.036,-0.054 -3.72898,-0.0891 -8.20644,-0.0782 -7.0139,0.0171 -8.16282,-0.0198 -8.29983,-0.26648 -0.0874,-0.15748 -0.16883,-0.8215 -0.18081,-1.47559 l -0.0218,-1.18927 -1.91315,-0.0377 -1.91315,-0.0377 -0.0749,0.56011 c -0.10944,0.81799 -0.0878,3.10176 0.032,3.38381 0.0804,0.18903 2.30857,0.25356 10.13405,0.29345 5.51708,0.0281 10.05259,0.0725 10.07887,0.0986 0.0263,0.0261 0.0169,-0.12901 -0.0209,-0.34472 z m -20.85573,-2.67192 c -0.0283,-0.40421 -0.0518,-0.12124 -0.0524,0.62882 -4.9e-4,0.75007 0.0225,1.08079 0.0513,0.73493 0.0288,-0.34585 0.0293,-0.95955 9.8e-4,-1.36375 z m 13.4089,0.48271 c 0.21346,-0.34825 0.49806,-0.83043 0.63244,-1.07152 l 0.2443,-0.43835 h -4.31301 c -3.74709,0 -4.33988,0.0401 -4.51786,0.30615 -0.27681,0.41364 -0.26302,1.37727 0.0232,1.62646 0.13978,0.12166 1.64476,0.20087 3.88545,0.2045 l 3.6573,0.005 0.38811,-0.63317 z m 6.36605,-3.11811 c -0.0437,-0.20694 0.008,-0.3882 0.13226,-0.45919 0.1125,-0.0645 0.20454,-0.19559 0.20454,-0.29128 0,-0.10003 -3.11969,-0.17397 -7.33967,-0.17397 -5.69763,0 -7.37624,0.0544 -7.50314,0.24353 -0.13086,0.19493 -0.21515,0.14634 -0.42245,-0.24353 -0.35695,-0.67132 -0.28582,-2.36851 0.12499,-2.9826 l 0.28551,-0.42678 7.62293,-0.0547 c 6.90323,-0.0496 7.62294,-0.0843 7.62294,-0.36817 0,-0.1724 0.0986,-0.42117 0.21904,-0.55282 0.54787,-0.59869 -0.25134,-0.64643 -10.28796,-0.61459 -11.33169,0.036 -10.38355,-0.11766 -10.50049,1.70111 -0.0651,1.01216 -0.0639,1.01619 0.27893,0.91827 l 0.34431,-0.0984 v 1.61303 c 0,0.88717 0.0331,1.74201 0.0736,1.89965 0.064,0.24901 1.32928,0.28305 9.64527,0.25946 9.06197,-0.0257 9.56782,-0.0454 9.49939,-0.36905 z m -3.20846,-2.28829 0.56129,-0.97401 h -5.80399 c -5.6048,0 -5.80861,0.013 -5.93893,0.37684 -0.15218,0.42492 -0.17952,1.24503 -0.048,1.44149 0.0478,0.0714 2.46773,0.12984 5.37763,0.1298 l 5.29074,-1e-4 z m -10.56698,-1.30313 c -0.12547,-0.0489 -0.3308,-0.0489 -0.45629,0 -0.12547,0.049 -0.0228,0.0891 0.22815,0.0891 0.25096,0 0.35362,-0.0401 0.22814,-0.0891 z m 1.89032,-0.009 c -0.30473,-0.041 -0.80338,-0.041 -1.10811,0 -0.30474,0.0411 -0.0554,0.0745 0.55406,0.0745 0.60946,0 0.85879,-0.0336 0.55405,-0.0745 z m 9.76668,21.59136 c 0.0338,-0.13709 16.67194,-29.03167 18.0993,-31.43198 l 0.32592,-0.54809 4.54488,0.0542 4.54488,0.0542 -9.23809,16.01262 -9.23811,16.01263 -4.54112,0.0114 c -2.66166,0.006 -4.52313,-0.0617 -4.49766,-0.16504 z M 54.753384,158.68349 c -4.369067,-0.37037 -7.429256,-1.71169 -8.655715,-3.79388 -1.095981,-1.86069 -1.050078,-4.18254 0.117332,-5.93476 1.784329,-2.67817 5.798299,-3.83448 12.579762,-3.62387 5.734261,0.17809 8.959396,1.2763 10.670638,3.63352 1.32429,1.82421 1.320062,4.41169 -0.01035,6.34262 -1.357407,1.97007 -4.177717,3.02579 -9.095867,3.40486 -2.724844,0.21002 -2.796689,0.20965 -5.605784,-0.0285 z m 6.259843,-0.59636 c 1.146007,-0.12915 2.356708,-0.23873 2.690447,-0.24352 0.333734,-0.005 0.581796,-0.0691 0.551242,-0.14303 -0.03055,-0.0739 0.04839,-0.13251 0.175406,-0.13028 0.474031,0.009 2.34846,-0.85692 3.246065,-1.49836 0.910325,-0.65054 1.743294,-1.76626 1.743294,-2.33507 0,-0.157 0.05683,-0.28545 0.126275,-0.28545 0.06945,0 0.09824,-0.10959 0.06399,-0.24353 -0.09477,-0.3705 -3.674101,-0.22785 -3.931412,0.15668 -0.103669,0.15492 -0.301622,0.29264 -0.439905,0.30603 -0.567419,0.0549 -0.739016,0.12883 -1.424728,0.61341 -0.394363,0.27868 -0.893016,0.55906 -1.108121,0.62304 -0.215105,0.064 -0.01951,-0.0974 0.434628,-0.35879 1.220434,-0.70228 1.963647,-1.93315 1.79034,-2.96505 -0.223131,-1.32856 -1.264896,-2.27015 -3.257431,-2.94422 -1.308661,-0.44271 -5.98443,-0.43813 -7.430521,0.008 -1.976487,0.60877 -3.205573,1.82822 -3.204385,3.17924 0.0014,1.83445 1.713514,3.13141 4.711545,3.56951 l 1.219669,0.17822 -1.308483,-0.085 c -0.719665,-0.0468 -1.746305,-0.25193 -2.281425,-0.45586 -0.535116,-0.20393 -1.026004,-0.32267 -1.090856,-0.26387 -0.06486,0.0588 -0.07986,0.0149 -0.03336,-0.0976 0.04652,-0.11249 -0.0061,-0.25653 -0.116998,-0.32011 -0.116205,-0.0667 -0.167596,-0.0334 -0.121353,0.0784 0.13136,0.31763 -0.312172,0.45109 -0.557215,0.16766 -0.167487,-0.19373 -0.158569,-0.14021 0.03424,0.2055 l 0.260737,0.46748 -0.435832,-0.37342 c -0.239705,-0.20539 -0.638523,-0.70711 -0.886261,-1.11496 l -0.45043,-0.74154 -1.884057,-0.0378 c -1.036227,-0.0207 -1.884046,0.0324 -1.884036,0.11805 2.9e-5,0.33659 0.386405,1.23327 0.737985,1.71271 0.584418,0.79694 1.201183,1.27868 2.421971,1.89173 0.623993,0.31335 1.094039,0.63024 1.04455,0.7042 -0.0495,0.074 -1.28e-4,0.083 0.109631,0.02 0.10978,-0.063 0.75331,0.0258 1.430059,0.19736 0.676754,0.17151 1.846441,0.36057 2.599312,0.42014 0.752871,0.0595 1.393302,0.14148 1.423176,0.18199 0.11546,0.15659 3.045427,0.0628 5.032221,-0.16115 z m -3.227287,-2.43565 c 0.162161,-0.0465 0.396822,-0.0448 0.521467,0.003 0.12464,0.0487 -0.008,0.0868 -0.294848,0.0847 -0.286806,-0.002 -0.388785,-0.042 -0.226619,-0.0887 z m 1.695583,-0.19822 c 0.234317,-0.0434 0.58631,-0.0425 0.782203,0.002 0.195899,0.0445 0.004,0.0799 -0.426026,0.0789 -0.430213,-0.001 -0.590493,-0.0375 -0.356177,-0.0808 z m 1.629736,-0.18863 c 0.126843,-0.0494 0.30284,-0.0461 0.391102,0.008 0.08826,0.0534 -0.01552,0.0938 -0.230626,0.0898 -0.215104,-0.003 -0.287318,-0.0476 -0.160476,-0.097 z m 0.714537,-0.18884 c 0.08962,-0.054 0.236292,-0.054 0.325919,0 0.08962,0.054 0.01631,0.0983 -0.16296,0.0983 -0.179253,0 -0.252585,-0.0443 -0.162959,-0.0983 z m -13.536447,1.4193 c -0.132721,-0.17948 -1.162445,-0.89863 -1.162445,-0.81184 0,0.11952 0.932844,0.86486 1.097257,0.8767 0.06573,0.004 0.09506,-0.0244 0.06519,-0.0649 z m 20.029887,-0.42433 c 0.238612,-0.28568 0.234454,-0.28973 -0.07286,-0.0711 -0.399059,0.28402 -0.473017,0.374 -0.307378,0.374 0.06995,0 0.241057,-0.13633 0.380237,-0.30297 z m 0.595607,-0.62242 c 0.162161,-0.309 0.15755,-0.31588 -0.04922,-0.0736 -0.217158,0.25452 -0.28622,0.4145 -0.178923,0.4145 0.02706,0 0.129734,-0.15343 0.228147,-0.34094 z m -22.054578,-0.15676 c -0.09251,-0.16656 -0.290353,-0.39353 -0.439659,-0.50435 -0.162698,-0.12077 -0.114766,-0.002 0.119649,0.29586 0.44875,0.57066 0.562186,0.64457 0.32001,0.20849 z m 22.83315,-0.92065 0.285874,-0.62728 -0.41017,0.6452 c -0.405118,0.63725 -0.527547,0.94736 -0.285875,0.72415 0.06836,-0.0631 0.252942,-0.39706 0.410171,-0.74207 z m -4.706214,-0.84307 c 0,-0.16124 -0.253139,-0.25242 -0.311177,-0.11209 -0.03764,0.0911 0.01695,0.16553 0.121359,0.16553 0.104399,0 0.189818,-0.0241 0.189818,-0.0535 z m -14.90117,-2.33468 c 0.373924,-1.67798 1.429491,-2.69036 3.576063,-3.42974 1.061869,-0.36575 1.622364,-0.42183 4.285282,-0.42872 2.64289,-0.006 3.234821,0.0483 4.310201,0.40126 2.191922,0.71951 3.247051,1.75669 3.576965,3.51609 l 0.138421,0.73818 1.810794,0.0545 c 1.064238,0.032 1.863623,-0.0245 1.93893,-0.13707 0.249177,-0.37237 -0.288673,-1.91311 -0.997828,-2.85843 -0.397093,-0.52934 -0.540122,-0.80475 -0.348112,-0.67032 l 0.325914,0.22818 -0.325914,-0.40049 c -0.703283,-0.86418 -2.820857,-1.78589 -5.278935,-2.29774 -2.181864,-0.45433 -8.596173,-0.45135 -10.822343,0.005 -2.598727,0.53275 -4.372694,1.36743 -5.27893,2.4838 l -0.325919,0.4015 0.456284,-0.33095 c 0.448968,-0.32563 0.445454,-0.31373 -0.218947,0.74137 -0.657494,1.04414 -0.975199,2.16003 -0.761859,2.67588 0.05862,0.14175 0.700992,0.19472 1.925141,0.15876 l 1.837168,-0.054 0.177624,-0.79707 z m -29.554017,7.14822 c -1.123278,-0.13804 -1.526968,-0.4106 -1.644478,-1.11027 -0.143325,-0.85337 0.01631,-10.45813 0.181373,-10.91269 0.321183,-0.8845 0.477131,-0.89929 8.463772,-0.80292 8.002857,0.0966 8.952665,0.19401 11.055181,1.13414 1.993733,0.89149 3.436992,2.60001 3.689208,4.36727 0.239391,1.67736 -0.287639,3.82908 -1.189726,4.85731 -1.041052,1.18663 -2.979412,1.95436 -5.667878,2.24485 -2.014874,0.21771 -13.526212,0.38962 -14.887452,0.22231 z m -0.556775,-0.52679 c -0.04331,-0.0647 -0.155761,-0.0716 -0.249872,-0.0153 -0.103995,0.0622 -0.0731,0.10835 0.07876,0.1177 0.137426,0.009 0.214424,-0.0376 0.171105,-0.1023 z m 12.650663,-0.0215 c -0.195898,-0.0445 -0.547887,-0.0454 -0.782203,-0.002 -0.234316,0.0433 -0.07403,0.0797 0.356173,0.0808 0.430213,10e-4 0.621923,-0.0343 0.42603,-0.0789 z m 0.975415,0.01 c -0.08962,-0.054 -0.236287,-0.054 -0.325918,0 -0.08962,0.054 -0.01631,0.0983 0.162959,0.0983 0.179259,0 0.252586,-0.0442 0.162959,-0.0983 z m 0.58394,0.0113 c -0.04331,-0.0647 -0.155766,-0.0716 -0.249871,-0.0153 -0.104,0.0622 -0.07311,0.10835 0.07876,0.11771 0.137426,0.009 0.214424,-0.0376 0.171109,-0.1023 z m -14.79993,-0.32142 c -0.07463,-0.13438 -0.160417,-0.5508 -0.190651,-0.92541 l -0.05497,-0.6811 -0.02084,0.69162 c -0.01148,0.38039 0.04954,0.79683 0.135578,0.92541 0.206566,0.30869 0.303845,0.30087 0.130908,-0.0108 z m 16.629303,0.11044 c -0.124645,-0.0487 -0.359306,-0.0506 -0.521466,-0.003 -0.162166,0.0466 -0.06018,0.0865 0.226619,0.0887 0.286811,0.002 0.419487,-0.036 0.294847,-0.0847 z m 1.262045,-0.23761 c 0.04016,-0.0971 -0.04435,-0.13076 -0.187857,-0.0746 -0.304407,0.11896 -0.342883,0.25135 -0.07306,0.25135 0.103319,0 0.220731,-0.0795 0.260913,-0.17666 z m -2.339094,-0.2273 c 3.53795,-0.35497 5.526016,-1.36534 6.131936,-3.11637 0.360888,-1.04292 0.338543,-1.05799 -1.569086,-1.05799 -0.967976,0 -1.759959,0.0555 -1.759959,0.1234 0,0.22481 -0.651684,0.31731 -0.655966,0.0931 -0.0025,-0.11909 -0.126217,0.0281 -0.275434,0.3271 -0.149217,0.29898 -0.564989,0.766 -0.92394,1.03784 -1.23144,0.93253 -2.053944,1.07944 -6.652295,1.18824 -4.534513,0.10726 -4.884383,0.0539 -5.156305,-0.78664 -0.07553,-0.23346 -0.141294,-0.30972 -0.146147,-0.16946 -0.0049,0.14027 -0.06749,0.20084 -0.13919,0.13462 -0.0717,-0.0662 -0.13449,-0.005 -0.13953,0.13462 -0.01956,0.54432 -0.233749,-0.56446 -0.242411,-1.25485 l -0.0092,-0.73058 H 21.654593 19.90915 l -0.08845,0.70452 c -0.04864,0.38749 -0.07558,1.19843 -0.05986,1.8021 0.05126,1.96809 -0.646249,1.78912 6.871534,1.76318 3.635707,-0.0125 7.373025,-0.0993 8.30515,-0.19285 z m 3.680156,-0.10338 c -0.04331,-0.0647 -0.155761,-0.0716 -0.249872,-0.0153 -0.103999,0.0622 -0.0731,0.10835 0.07876,0.1177 0.13743,0.009 0.214429,-0.0376 0.171109,-0.1023 z m 0.521466,-0.19481 c -0.04331,-0.0647 -0.155761,-0.0716 -0.249871,-0.0154 -0.103994,0.0622 -0.0731,0.10835 0.07876,0.1177 0.137427,0.009 0.214425,-0.0376 0.171104,-0.1023 z m 2.539461,-2.5124 c 0.07431,-0.2143 0.08377,-0.30197 0.02099,-0.19482 -0.06275,0.10716 -0.319258,0.54532 -0.570016,0.97371 l -0.455924,0.77888 0.43491,-0.58406 c 0.239203,-0.32124 0.495712,-0.75939 0.57002,-0.97371 z m -7.160798,0.61441 c 1.553827,-0.66045 2.308403,-1.61519 2.30955,-2.9222 9.86e-4,-1.40744 -0.918214,-2.40734 -2.737221,-2.97669 -0.923373,-0.28902 -1.797016,-0.34839 -5.240137,-0.3561 -2.61908,-0.005 -4.180509,0.0629 -4.264451,0.18775 -0.07509,0.11169 -0.146507,1.48765 -0.164935,3.17771 -0.02655,2.43564 0.0025,3.01565 0.157885,3.17161 0.118889,0.11919 1.879528,0.1622 4.688057,0.11454 3.666896,-0.0622 4.636857,-0.13548 5.251252,-0.39662 z m -11.068884,-3.46367 c 0.04484,-0.33485 0.08148,-1.11417 0.08148,-1.73181 0,-1.38142 0.253231,-1.92446 0.991472,-2.12621 0.289152,-0.079 2.369638,-0.11403 4.623304,-0.0778 4.494997,0.0723 5.959778,0.30706 7.107918,1.1395 0.838689,0.60809 1.079159,1.00975 1.367695,2.28449 l 0.231615,1.02326 1.726424,0.0547 c 1.877694,0.0593 1.990499,-3.9e-4 1.806658,-0.95844 -0.152715,-0.79574 -0.637966,-1.65707 -1.307537,-2.3209 -0.616735,-0.61143 -0.595061,-0.66154 0.171114,-0.39564 1.259714,0.43719 -0.447593,-0.95032 -1.904164,-1.54749 -2.107188,-0.86392 -3.426576,-0.99923 -10.799669,-1.10765 -3.850655,-0.0566 -7.21251,-0.0436 -7.470787,0.0287 -0.738675,0.20709 -0.976864,0.69823 -0.974529,2.00943 9.86e-4,0.61612 0.04508,1.02616 0.09777,0.91119 0.05268,-0.11497 0.198441,-0.26563 0.323918,-0.33482 0.205836,-0.11349 0.228143,0.0339 0.228143,1.50814 0,0.89867 0.03562,1.77261 0.07913,1.94211 0.06665,0.25958 0.351836,0.30817 1.808846,0.30817 h 1.729711 z m 51.612166,6.85885 c -0.883754,-0.0932 -1.124589,-0.19157 -1.368853,-0.55888 -0.295005,-0.44362 -0.29632,-0.47135 -0.276084,-5.8219 l 0.02035,-5.37617 0.34138,-0.5098 0.34138,-0.50981 7.590682,0.003 c 6.641868,0.003 7.77808,0.0475 9.089904,0.35278 4.590399,1.06836 6.664061,3.67768 5.933392,7.46612 -0.174853,0.90659 -0.361113,1.34482 -0.912686,2.14735 -0.583964,0.84964 -0.864138,1.08908 -1.780781,1.52181 -1.968307,0.9292 -3.150609,1.09073 -9.301998,1.2709 -6.258138,0.18327 -8.045837,0.18582 -9.676667,0.0137 z m 12.707705,-0.54858 c -0.340586,-0.0401 -0.897904,-0.0401 -1.238491,0 -0.340582,0.0401 -0.06192,0.073 0.619243,0.073 0.68117,0 0.959831,-0.0328 0.619248,-0.073 z m 1.170584,0.0255 c -0.04331,-0.0647 -0.15576,-0.0716 -0.24987,-0.0153 -0.103995,0.0622 -0.0731,0.10835 0.07876,0.1177 0.137427,0.009 0.214425,-0.0376 0.171104,-0.1023 z m -15.139318,-0.77093 c -0.07893,-0.38182 -0.161881,-0.56174 -0.184343,-0.39986 -0.03636,0.2622 0.181623,1.09406 0.286707,1.09406 0.02261,0 -0.02345,-0.31239 -0.102359,-0.6942 z m 16.901992,0.56517 c -0.08962,-0.054 -0.236291,-0.054 -0.325919,0 -0.08962,0.054 -0.01631,0.0983 0.16296,0.0983 0.179253,0 0.252585,-0.0443 0.162959,-0.0983 z m 1.105407,-0.18349 c -0.04331,-0.0647 -0.155766,-0.0716 -0.249872,-0.0154 -0.104,0.0622 -0.0731,0.10836 0.07876,0.11771 0.137425,0.009 0.214429,-0.0376 0.171109,-0.1023 z m -2.378311,-0.28942 c 1.880859,-0.17852 3.367848,-0.57358 4.479363,-1.19006 0.86943,-0.48221 1.845137,-1.81299 1.845521,-2.51715 l 2.61e-4,-0.46397 -1.857987,0.13076 c -2.3942,0.1685 -2.507315,0.19542 -2.862783,0.68139 -0.343361,0.46942 -1.142809,1.10874 -1.22774,0.98182 -0.03149,-0.0471 0.120901,-0.19582 0.338636,-0.33059 0.67671,-0.4189 1.176876,-1.44652 1.176876,-2.418 0,-1.45216 -0.688811,-2.31352 -2.375097,-2.97009 -0.65441,-0.25481 -1.711597,-0.33636 -5.263181,-0.40598 -4.014949,-0.0787 -4.465183,-0.0558 -4.660622,0.2362 -0.182063,0.27206 -0.216342,0.78036 -0.216342,3.20785 0,3.20237 0.0095,3.24029 0.849041,3.37836 0.429677,0.0707 0.407322,0.0817 -0.128912,0.0632 -0.519904,-0.0178 -0.675626,-0.10338 -0.784178,-0.4305 -0.09926,-0.29914 -0.204605,-0.37133 -0.394211,-0.27011 -0.328726,0.17546 -0.44978,-0.0992 -0.452313,-1.02634 l -0.0019,-0.73058 h -1.759958 -1.759954 v 2.01315 c 0,1.10724 0.04011,2.07306 0.08907,2.14628 0.123541,0.18462 12.888803,0.11157 14.9665,-0.0857 z m -8.568294,-1.48407 c 0.162166,-0.0466 0.396827,-0.0448 0.521472,0.003 0.124639,0.0487 -0.008,0.0869 -0.294848,0.0847 -0.286805,-0.002 -0.388786,-0.042 -0.226624,-0.0887 z m 4.099343,-0.2013 c 0.480851,-0.0374 1.302162,-0.0376 1.825141,-5.8e-4 0.522974,0.0372 0.129547,0.0676 -0.874278,0.0679 -1.003826,3.9e-4 -1.431715,-0.03 -0.950863,-0.0674 z m 3.070852,-0.18834 c 0.162166,-0.0466 0.39682,-0.0448 0.521465,0.003 0.124646,0.0487 -0.008,0.0868 -0.294847,0.0847 -0.286805,-0.002 -0.388784,-0.042 -0.226618,-0.0887 z m 0.919194,-0.19012 c 0.09411,-0.0563 0.206551,-0.0494 0.249872,0.0155 0.04331,0.0647 -0.0337,0.11078 -0.171109,0.1023 -0.151869,-0.01 -0.182758,-0.0555 -0.07876,-0.1177 z m 4.160885,1.9636 c -0.04331,-0.0647 -0.155761,-0.0716 -0.249871,-0.0154 -0.103995,0.0622 -0.0731,0.10836 0.07876,0.1177 0.137431,0.009 0.214429,-0.0376 0.171109,-0.1023 z m 0.912568,-0.38964 c -0.04331,-0.0647 -0.155761,-0.0716 -0.249872,-0.0154 -0.103994,0.0622 -0.0731,0.10835 0.07876,0.11771 0.137427,0.009 0.214426,-0.0376 0.171105,-0.1023 z m 1.979833,-1.906 c 0.221145,-0.41656 0.4003,-0.85491 0.398117,-0.97412 -0.0019,-0.1192 -0.06846,-0.0414 -0.147305,0.17291 -0.07883,0.21431 -0.355709,0.73019 -0.615277,1.1464 -0.259568,0.41622 -0.374216,0.67923 -0.254779,0.58447 0.119437,-0.0947 0.398094,-0.51311 0.619244,-0.92966 z m -22.320157,-0.3631 c -0.03109,-0.24109 -0.0565,-0.0439 -0.0565,0.43835 0,0.48219 0.02543,0.67944 0.0565,0.43835 0.03109,-0.2411 0.03109,-0.63561 0,-0.8767 z m 4.259002,-2.89798 c 0.04479,-0.33484 0.08148,-1.11416 0.08148,-1.73181 0,-1.39452 0.251577,-1.92401 1.013045,-2.1321 0.922945,-0.2522 8.555676,-0.0205 9.854048,0.29921 2.058284,0.50676 2.9809,1.391 3.278019,3.14172 l 0.158579,0.93439 1.735253,0.0546 c 0.954391,0.03 1.789892,-0.027 1.856675,-0.12686 0.346821,-0.51829 -0.479713,-2.419 -1.469363,-3.37897 l -0.325919,-0.31615 0.456285,0.0969 c 0.25096,0.0533 0.602948,0.2267 0.782202,0.38539 l 0.325919,0.28854 -0.324672,-0.42165 c -0.413763,-0.53737 -1.317422,-1.21385 -2.152302,-1.61124 -2.141101,-1.01912 -5.564478,-1.34586 -13.251281,-1.26479 -6.338177,0.0669 -6.118667,0.0177 -6.293496,1.41034 -0.108554,0.86472 0.02217,1.30942 0.364272,1.23924 0.264308,-0.0542 0.27902,0.032 0.314586,1.84262 l 0.0373,1.89951 h 1.738943 1.73894 z m 32.216967,6.74978 c -0.0717,-0.0394 -1.09834,-0.11683 -2.28143,-0.17189 -4.49945,-0.20938 -7.36193,-1.93181 -7.931456,-4.77256 -0.590521,-2.94547 0.547186,-5.33326 3.119966,-6.54806 2.16813,-1.02374 3.06891,-1.11682 11.80094,-1.21941 5.93461,-0.0697 8.17196,-0.0357 8.37609,0.12762 0.23172,0.18533 0.27851,0.39974 0.27851,1.27593 0,0.57924 -0.0587,1.10732 -0.13028,1.1735 -0.0717,0.0662 -3.28358,0.14571 -7.1376,0.17672 -7.56363,0.0608 -8.34149,0.154 -9.67984,1.15922 -1.5783,1.18544 -1.56708,3.71874 0.0216,4.87101 1.2602,0.91404 2.59334,1.11033 7.15202,1.05307 l 4.10318,-0.0515 0.0421,-0.77151 c 0.0688,-1.26012 0.0274,-1.27411 -3.76727,-1.27411 h -3.34943 l -0.0786,-0.43836 c -0.11994,-0.66883 -0.0971,-1.49357 0.0528,-1.91231 0.1306,-0.36468 0.31465,-0.37533 5.70355,-0.33033 l 5.56861,0.0466 -5.4638,0.053 c -3.88051,0.0377 -5.51618,0.11803 -5.64455,0.27724 -0.14662,0.18185 -0.14882,0.25444 -0.0117,0.38449 0.22896,0.21705 12.22808,0.21246 12.22808,-0.004 0,-0.28809 -0.30604,-0.5695 -0.71701,-0.6593 l -0.3911,-0.0854 0.42369,-0.0292 c 0.26997,-0.0187 0.51829,0.11216 0.68442,0.36044 0.23599,0.35267 0.26074,0.64941 0.26074,3.12683 0,2.86529 -0.12029,3.65006 -0.61442,4.00856 -0.22006,0.15965 -12.3404,0.32728 -12.61784,0.1745 z m 0.29061,-0.41402 c -0.0433,-0.0647 -0.15576,-0.0716 -0.24987,-0.0153 -0.10399,0.0622 -0.0731,0.10834 0.0787,0.1177 0.13742,0.009 0.21442,-0.0376 0.1711,-0.1023 z m -3.12881,-0.19481 c -0.0433,-0.0647 -0.15576,-0.0716 -0.24988,-0.0154 -0.10398,0.0622 -0.0731,0.10835 0.0787,0.1177 0.13743,0.009 0.21443,-0.0376 0.17111,-0.1023 z m 15.56562,-0.22324 c 0.16217,-0.309 0.15756,-0.31589 -0.0492,-0.0736 -0.12547,0.14707 -0.22814,0.30049 -0.22814,0.34094 0,0.16034 0.10706,0.0571 0.27737,-0.26738 z m -0.45421,-0.34296 c 0.20148,-0.0909 0.33929,-2.13751 0.21337,-3.16873 l -0.10176,-0.83291 -2.02776,-0.0437 -2.02777,-0.0439 0.0892,0.8767 c 0.10268,1.00937 -0.0417,1.7534 -0.34022,1.7534 -0.13048,0 -0.17045,-0.0897 -0.10858,-0.24353 0.0684,-0.17011 0.0325,-0.16415 -0.11939,0.0198 -0.17701,0.2145 -1.10632,0.24578 -5.01156,0.16868 -2.68607,-0.053 -5.01688,-0.18377 -5.30049,-0.29734 -0.28728,-0.11504 -0.62844,-0.13328 -0.78881,-0.0421 -0.15541,0.0882 -0.44857,0.11314 -0.65144,0.0552 -0.37022,-0.10576 -1.42263,-1.46785 -1.52963,-1.97972 -0.0451,-0.21604 -0.4322,-0.27741 -1.84285,-0.29224 l -1.78569,-0.0188 -1.3e-4,0.47175 c -2.6e-4,0.79169 1.0188,2.07146 2.01613,2.53181 1.75199,0.80867 3.03961,1.04301 6.45754,1.17517 3.13694,0.1213 12.53751,0.0558 12.85986,-0.0894 z m 0.6583,-1.01708 c -0.0331,-0.18956 -0.0622,-0.0817 -0.0649,0.23982 -0.002,0.32145 0.0244,0.47654 0.0601,0.34464 0.0357,-0.13189 0.0379,-0.3949 0.005,-0.58446 z m -20.23207,0.33723 c -0.35839,-0.23015 -0.56422,-0.23015 -0.32591,0 0.10755,0.10392 0.28354,0.18404 0.3911,0.17814 0.12894,-0.008 0.10673,-0.0677 -0.0652,-0.17814 z m 14.11967,-4.29446 c 3.36228,-0.008 5.50059,-0.0845 5.50059,-0.19707 0,-0.20536 -10.5208,-0.26402 -11.19529,-0.0624 -0.28457,0.085 -0.40738,0.23324 -0.40738,0.49154 0,0.3414 0.0231,0.34718 0.30074,0.0753 0.25579,-0.25047 1.12295,-0.29641 5.80134,-0.30736 z m -12.38983,-0.2713 c 0.0392,-0.0585 0.15146,-0.008 0.24942,0.11431 0.21709,0.26927 0.25544,0.21916 0.37441,-0.48918 0.0876,-0.52176 0.0762,-0.5425 -0.18495,-0.33367 -0.22984,0.18382 -0.2784,0.16881 -0.2784,-0.0861 0,-1.02736 1.03202,-2.43373 2.15003,-2.92997 1.27361,-0.5653 2.29395,-0.64414 9.13844,-0.70613 6.69416,-0.0606 6.91907,-0.0746 6.85735,-0.42827 -0.0376,-0.21539 0.0246,-0.43947 0.15125,-0.54544 0.11829,-0.099 0.21507,-0.2688 0.21507,-0.37749 0,-0.13245 -2.84868,-0.17099 -8.63682,-0.11688 -7.34371,0.0686 -8.80273,0.12899 -9.74494,0.40288 -1.40992,0.40985 -2.82233,1.16412 -3.32437,1.77533 l -0.3911,0.47614 0.49665,-0.1985 c 0.75561,-0.302 0.81553,-0.13158 0.18664,0.53087 -0.3133,0.33002 -0.66854,0.9115 -0.78942,1.29218 -0.24443,0.76977 -0.28929,1.63761 -0.0898,1.73727 0.21286,0.1063 3.54308,-0.001 3.62054,-0.11734 z"
       id="path60" />
    <rect
       style="fill:none;stroke:#ff0000;stroke-width:0.0179665;stroke-miterlimit:4;stroke-dasharray:none;stroke-dashoffset:0;stroke-opacity:1"
       id="rect62"
       width="162.98537"
       height="41.235165"
       x="11.743429"
       y="134.14687" />
  </g>
</svg>
