<?xml version="1.0" encoding="UTF-8" standalone="no"?>
<svg
   xmlns:dc="http://purl.org/dc/elements/1.1/"
   xmlns:cc="http://creativecommons.org/ns#"
   xmlns:rdf="http://www.w3.org/1999/02/22-rdf-syntax-ns#"
   xmlns:svg="http://www.w3.org/2000/svg"
   xmlns="http://www.w3.org/2000/svg"
   xmlns:sodipodi="http://sodipodi.sourceforge.net/DTD/sodipodi-0.dtd"
   xmlns:inkscape="http://www.inkscape.org/namespaces/inkscape"
   width="210mm"
   height="297mm"
   viewBox="0 0 210 297"
   version="1.1"
   id="svg8"
   inkscape:version="1.0.1 (0767f8302a, 2020-10-17)"
   sodipodi:docname="MT-09 corte.svg">
  <defs
     id="defs2" />
  <sodipodi:namedview
     id="base"
     pagecolor="#ffffff"
     bordercolor="#666666"
     borderopacity="1.0"
     inkscape:pageopacity="0.0"
     inkscape:pageshadow="2"
     inkscape:zoom="0.67609208"
     inkscape:cx="602.08155"
     inkscape:cy="561.7768"
     inkscape:document-units="mm"
     inkscape:current-layer="layer1"
     inkscape:document-rotation="0"
     showgrid="false"
     inkscape:window-width="1853"
     inkscape:window-height="1025"
     inkscape:window-x="67"
     inkscape:window-y="27"
     inkscape:window-maximized="1" />
  <metadata
     id="metadata5">
    <rdf:RDF>
      <cc:Work
         rdf:about="">
        <dc:format>image/svg+xml</dc:format>
        <dc:type
           rdf:resource="http://purl.org/dc/dcmitype/StillImage" />
        <dc:title></dc:title>
      </cc:Work>
    </rdf:RDF>
  </metadata>
  <g
     inkscape:label="Capa 1"
     inkscape:groupmode="layer"
     id="layer1">
    <path
       style="fill:#000000;stroke-width:0.474101"
       d="m 160.64952,164.71574 c -1.22795,-3.46419 -1.63035,-5.45668 -1.78623,-8.84474 -0.22235,-4.83241 -1.24759,-12.89787 -1.7973,-14.13924 -0.27978,-0.63179 0.13365,-0.53865 2.0076,0.45229 l 2.35993,1.24794 0.29426,3.08863 c 0.16184,1.69875 0.29578,5.59753 0.29764,8.66396 0.002,3.59585 0.17241,5.47172 0.47947,5.28353 0.28778,-0.17638 0.47608,-3.53064 0.47608,-8.48053 v -8.18873 l 2.49945,-1.40919 c 1.3747,-0.77505 2.57037,-1.3449 2.65705,-1.26631 0.0867,0.0786 -0.0669,0.55885 -0.34129,1.06728 -0.53327,0.98813 -1.98223,13.46676 -1.91285,16.47367 0.0374,1.62124 -2.46452,9.31626 -3.30872,10.17643 -0.18705,0.19058 -1.05334,-1.66567 -1.92509,-4.12499 z m -106.828157,-7.76919 -1.326202,-0.25543 1.650006,-2.59032 c 0.907502,-1.42468 1.57266,-2.66703 1.478126,-2.76077 -0.09453,-0.0937 -1.887946,1.12501 -3.985362,2.70835 -3.204684,2.41922 -4.119057,2.8788 -5.727581,2.8788 -2.088462,0 -1.863423,0.35667 -3.250187,-5.15128 l -0.405446,-1.61035 -2.025358,3.38082 -2.025358,3.38081 h -2.642449 -2.642449 l 1.302733,-2.24259 c 0.716502,-1.23342 1.965224,-3.35798 2.774938,-4.72124 l 1.472206,-2.47865 h 3.42527 3.425271 l 0.57738,2.55854 c 0.317559,1.40719 0.735464,2.81219 0.928677,3.12222 0.239687,0.38459 1.617486,-0.42693 4.336642,-2.55428 l 3.985344,-3.11795 3.927706,-0.004 c 2.160239,-0.002 3.924014,0.15508 3.9195,0.34983 -0.0045,0.19475 -1.141128,2.2599 -2.525808,4.5892 -2.678112,4.50512 -3.569928,5.11132 -6.647599,4.51856 z m 14.894644,0.12612 c 0,-0.17964 0.85695,-1.75709 1.90434,-3.50544 1.04739,-1.74834 1.90434,-3.30101 1.90434,-3.45036 0,-0.14935 -1.92814,-0.27155 -4.28477,-0.27155 -2.356622,0 -4.284769,-0.12019 -4.284769,-0.2671 0,-0.1469 0.221777,-0.67804 0.492837,-1.18031 0.466635,-0.86466 1.112045,-0.91321 12.140182,-0.91321 6.40604,0 11.64735,0.1202 11.64735,0.2671 0,0.14691 -0.22178,0.67805 -0.49283,1.18031 -0.43039,0.79749 -1.02794,0.91321 -4.71561,0.91321 h -4.22278 l -2.23288,3.77699 -2.23288,3.77699 h -2.81127 c -1.54619,0 -2.81126,-0.14698 -2.81126,-0.32663 z m 28.08905,-0.40779 c 0,-0.14427 1.19081,-2.26883 2.64625,-4.72124 l 2.646243,-4.45894 h 10.25331 10.25331 l -1.30273,2.24259 c -0.7165,1.23342 -1.96523,3.35798 -2.77494,4.72124 l -1.47221,2.47865 h -10.12461 c -5.56854,0 -10.124623,-0.11804 -10.124623,-0.2623 z m 17.129173,-3.86878 c 0.78105,-1.23343 1.42416,-2.50816 1.42913,-2.83275 0.007,-0.43139 -1.20927,-0.59015 -4.51968,-0.59015 h -4.52873 l -1.66038,2.574 c -0.91322,1.4157 -1.66039,2.69043 -1.66039,2.83274 0,0.14231 2.14199,0.25874 4.75998,0.25874 h 4.75999 z m 6.38272,3.39311 c 0.16082,-0.41559 0.2924,-0.84448 0.2924,-0.95308 0,-0.10859 3.70633,-0.19745 8.23628,-0.19745 7.94357,0 9.37889,-0.2312 9.37889,-1.51079 0,-0.20774 -3.53494,-0.3777 -7.85541,-0.3777 -4.83968,0 -7.85542,-0.17853 -7.85542,-0.46503 0,-0.25577 0.66109,-1.5305 1.46909,-2.83275 l 1.4691,-2.36771 h 10.90913 c 6.00003,0 10.90638,0.15934 10.90301,0.35409 -0.003,0.19476 -1.13414,2.2662 -2.51284,4.60321 l -2.50673,4.24912 -11.10995,0.12686 c -10.02208,0.11445 -11.08131,0.0529 -10.81755,-0.62877 z m 19.81191,-5.87176 c 0.49586,-0.91881 0.36206,-0.94425 -4.9654,-0.94425 -4.98773,0 -5.52033,0.084 -5.98457,0.94425 -0.49586,0.9188 -0.36206,0.94424 4.9654,0.94424 4.98773,0 5.52034,-0.084 5.98457,-0.94424 z m 14.9991,2.0052 c -1.92234,-2.64997 -2.5179,-4.00682 -3.57293,-8.14008 -0.69633,-2.72802 -1.53417,-5.45626 -1.86187,-6.06275 -0.3277,-0.60649 -0.5249,-1.17304 -0.43822,-1.25898 0.13744,-0.13629 5.81396,3.09238 6.32107,3.59527 0.25734,0.2552 2.21058,14.69775 2.0141,14.89259 -0.0854,0.0847 -1.19338,-1.27702 -2.46215,-3.02605 z m 12.13778,2.88468 c 0,-1.19481 1.92845,-14.51363 2.13045,-14.71395 0.59806,-0.59309 6.17649,-3.8132 6.33448,-3.65653 0.1,0.0991 -0.07,0.64685 -0.37781,1.21712 -0.50029,0.92702 -1.21187,3.26591 -2.79737,9.19467 -0.48101,1.79866 -5.28975,9.03365 -5.28975,7.95869 z m -81.551893,-2.27837 c 0.80715,-1.09977 1.11766,-1.16631 5.50818,-1.18031 l 4.65281,-0.0148 -0.77986,1.18031 c -0.7452,1.12785 -0.98999,1.18031 -5.50818,1.18031 h -4.72833 l 0.85538,-1.16548 z"
       id="path887" />
    <rect
       style="fill:none;stroke:#ff0000;stroke-width:0.0923546;stroke-miterlimit:4;stroke-dasharray:none;stroke-dashoffset:0;stroke-opacity:1"
       id="rect889"
       width="147.50862"
       height="33.854534"
       x="30.011553"
       y="136.12604"
       ry="0" />
  </g>
</svg>
