<?xml version="1.0" encoding="UTF-8" standalone="no"?>
<svg
   xmlns:dc="http://purl.org/dc/elements/1.1/"
   xmlns:cc="http://creativecommons.org/ns#"
   xmlns:rdf="http://www.w3.org/1999/02/22-rdf-syntax-ns#"
   xmlns:svg="http://www.w3.org/2000/svg"
   xmlns="http://www.w3.org/2000/svg"
   xmlns:sodipodi="http://sodipodi.sourceforge.net/DTD/sodipodi-0.dtd"
   xmlns:inkscape="http://www.inkscape.org/namespaces/inkscape"
   width="210mm"
   height="297mm"
   viewBox="0 0 210 297"
   version="1.1"
   id="svg8"
   inkscape:version="1.0.1 (0767f8302a, 2020-10-17)"
   sodipodi:docname="prueba.svg">
  <defs
     id="defs2" />
  <sodipodi:namedview
     id="base"
     pagecolor="#ffffff"
     bordercolor="#666666"
     borderopacity="1.0"
     inkscape:pageopacity="0.0"
     inkscape:pageshadow="2"
     inkscape:zoom="0.35"
     inkscape:cx="250.78747"
     inkscape:cy="635.39555"
     inkscape:document-units="mm"
     inkscape:current-layer="layer1"
     inkscape:document-rotation="0"
     showgrid="false"
     inkscape:window-width="1352"
     inkscape:window-height="1023"
     inkscape:window-x="67"
     inkscape:window-y="27"
     inkscape:window-maximized="0" />
  <metadata
     id="metadata5">
    <rdf:RDF>
      <cc:Work
         rdf:about="">
        <dc:format>image/svg+xml</dc:format>
        <dc:type
           rdf:resource="http://purl.org/dc/dcmitype/StillImage" />
        <dc:title></dc:title>
      </cc:Work>
    </rdf:RDF>
  </metadata>
  <g
     inkscape:label="Capa 1"
     inkscape:groupmode="layer"
     id="layer1">
    <path
       id="path14"
       style="fill:none;stroke:#000000;stroke-width:0.999999px;stroke-linecap:butt;stroke-linejoin:miter;stroke-opacity:1"
       transform="scale(0.26458333)"
       d="m 42.617188,444.06055 c -0.07449,0.2248 -0.157409,0.44889 -0.230469,0.67383 0.169262,-0.22012 0.33636,-0.43837 0.505859,-0.65821 -0.09173,-0.005 -0.183567,-0.009 -0.27539,-0.0156 z" />
    <path
       style="fill:none;stroke:#000000;stroke-width:0.264583px;stroke-linecap:butt;stroke-linejoin:miter;stroke-opacity:1"
       d="m 47.469139,29.008403 c -7.773525,1.159121 -18.869761,7.523189 -21.85184,15.237259 -0.981227,2.538246 -0.765549,7.131589 -0.765549,9.847336 0,1.511903 -0.397809,3.077083 0,4.535713 0.3866,1.417534 1.425264,2.57606 2.267856,3.779763 4.21771,6.025301 9.201446,6.960055 15.875,5.291667 3.795167,-0.948794 7.097786,-0.700114 10.583333,-3.02381"
       id="path429" />
    <path
       style="fill:none;stroke:#000000;stroke-width:0.264583px;stroke-linecap:butt;stroke-linejoin:miter;stroke-opacity:1"
       d="m 93.595244,37.395949 c -3.067089,-0.438156 -8.353091,-1.666881 -11.339284,0 -2.440813,1.36245 -3.953188,3.953184 -5.929779,5.929778 -2.160677,2.160682 -4.572222,4.096734 -6.482024,6.482048 -5.79996,7.244067 -10.77251,21.229616 -4.685022,29.784772 2.275845,3.198397 5.362101,5.754661 8.327149,8.327149 2.439101,2.116172 6.828039,4.879618 10.222198,5.692643 0.988465,0.236776 2.032852,0 3.049281,0 0.755952,0 1.702699,0.50206 2.267855,0 1.434549,-1.274387 2.246661,-3.12492 3.153418,-4.816012 2.88535,-5.381159 4.95623,-11.207996 8.209214,-16.375223 4.47175,-7.103179 23.65128,-24.853884 14.60999,-35.743388 -1.1683,-1.407123 -3.10501,-1.941872 -4.56769,-3.039819 -4.11088,-3.085798 -10.860448,-9.805606 -10.860448,-4.782309"
       id="path431" />
    <path
       style="fill:none;stroke:#000000;stroke-width:0.264583px;stroke-linecap:butt;stroke-linejoin:miter;stroke-opacity:1"
       d="m 121.39066,79.58348 c 2.51984,-5.039683 4.96982,-10.114902 7.55952,-15.119045 3.26212,-6.303473 3.88819,-6.111005 6.10949,-12.218639 0.3632,-0.998624 0.56583,-2.050428 0.77418,-3.09242 0.0509,-0.254762 -0.0435,-1.03555 0,-0.779415 3.02534,17.812332 1.15512,37.527766 9.35658,54.240919 0.14524,0.29599 3.95847,3.59376 5.05298,1.95199 5.57435,-8.361519 8.53653,-22.093008 8.53653,-31.997565"
       id="path433" />
    <path
       style="fill:none;stroke:#000000;stroke-width:0.264583px;stroke-linecap:butt;stroke-linejoin:miter;stroke-opacity:1"
       d="m 72.252786,121.04032 c -5.128424,0.52439 -10.314191,0.6459 -15.385272,1.57318 -10.084588,1.84404 -19.622785,12.16992 -15.381766,22.77247 2.598589,6.49647 18.781024,14.36309 26.458333,14.36309"
       id="path435" />
    <path
       style="fill:none;stroke:#000000;stroke-width:0.264583px;stroke-linecap:butt;stroke-linejoin:miter;stroke-opacity:1"
       d="m 151.13746,126.47922 c -11.60819,-3.71918 -22.60084,-0.47957 -31.05731,7.2252 -9.99928,9.11044 -7.07832,24.70306 -8.79722,36.67084 -0.62801,4.37257 1.46705,3.69004 3.02382,6.80357 0.11268,0.22538 0.24722,0.70721 0,0.75595 -12.42151,2.44883 -26.511447,1.07281 -36.729767,-7.10698 -1.911313,-1.53002 -2.564918,-4.2466 -3.200111,-6.61103 -1.962208,-7.30415 6.557766,-11.51939 12.448254,-12.78355 2.672418,-0.57353 5.466535,0 8.199802,0"
       id="path437" />
    <path
       style="fill:none;stroke:#000000;stroke-width:0.264583px;stroke-linecap:butt;stroke-linejoin:miter;stroke-opacity:1"
       d="m 65.651493,203.20437 c 0.206801,16.18242 -5.15439,31.6052 -6.047621,47.68332 -0.08387,1.50958 0.187529,3.03549 0,4.53571 -0.06989,0.55911 -1.163489,1.901 -0.755952,1.51191 2.717163,-2.59416 3.720336,-6.53502 5.80797,-9.65823 1.161102,-1.73707 2.610461,-3.26309 3.91569,-4.89464"
       id="path439" />
    <path
       style="fill:none;stroke:#000000;stroke-width:0.264583px;stroke-linecap:butt;stroke-linejoin:miter;stroke-opacity:1"
       d="m 104.85526,219.96022 c -3.59593,11.46178 -5.960539,23.5457 -10.124424,34.8367 -1.599488,4.33725 -5.650815,8.28479 -2.523241,5.87211 0.872445,-0.67303 0.985544,-1.97109 1.478314,-2.95664"
       id="path441" />
    <path
       style="fill:none;stroke:#000000;stroke-width:0.264583px;stroke-linecap:butt;stroke-linejoin:miter;stroke-opacity:1"
       d="m 104.85526,219.96022 c 3.48404,5.3174 7.8835,10.13709 10.45212,15.9522 1.11762,2.53019 -0.32194,18.08191 -0.85802,21.57237 -0.60616,3.94683 -1.61276,8.12735 -0.0898,8.21508 0.53434,0.0308 0.44262,-0.97729 0.71812,-1.43615 0.44858,-0.74714 0.96678,-1.4502 1.45017,-2.1753"
       id="path443" />
    <path
       style="fill:none;stroke:#000000;stroke-width:0.264583px;stroke-linecap:butt;stroke-linejoin:miter;stroke-opacity:1"
       d="m 159.44435,223.51755 c 1.04755,13.56297 -2.80907,26.73891 -8.85065,38.83262 -0.77361,1.54857 -2.06007,2.83323 -2.67421,4.45169 -0.30696,0.80896 0,1.73048 0,2.59572 0,4.2748 5.10366,-1.22036 6.0604,-2.1771"
       id="path445" />
    <path
       style="fill:none;stroke:#000000;stroke-width:0.264583px;stroke-linecap:butt;stroke-linejoin:miter;stroke-opacity:1"
       d="m 183.26922,232.39201 c 0.25604,4.75081 0.61221,9.49729 0.76813,14.25245 0.10021,3.05625 0.45542,6.14988 0,9.17367 -1.32546,8.80044 -6.49734,16.70688 -6.49734,25.77846"
       id="path447" />
    <path
       style="fill:none;stroke:#000000;stroke-width:0.264583px;stroke-linecap:butt;stroke-linejoin:miter;stroke-opacity:1"
       d="m 177.54001,281.59659 c -0.89171,4.02149 -1.70614,8.06091 -2.67513,12.06447 -2.14926,8.88006 4.84985,-1.12104 1.55407,-4.41682 -1.40856,-1.40856 -8.9998,-1.60036 -9.07143,0.75597 -0.0334,1.09942 3.81009,2.78937 3.67102,1.32411 -0.0293,-0.30888 -0.52395,-0.37841 -0.65814,-0.65815 -2.01627,-4.20302 3.31033,-5.55128 7.17961,-9.06958"
       id="path449" />
    <path
       style="fill:none;stroke:#000000;stroke-width:0.264583px;stroke-linecap:butt;stroke-linejoin:miter;stroke-opacity:1"
       d="m 138.45491,279.81177 c -3.72428,0.0225 -11.74767,9.57148 -4.25034,11.07093 7.0034,1.40068 9.07143,-4.84002 9.07143,-10.58333 0,-0.75594 0.29778,-1.57303 0,-2.26785 -0.52637,-1.2282 -3.39895,-4.38224 -4.53572,-5.29167 -4.47293,-3.57836 -20.81853,3.24464 -6.80357,6.04764"
       id="path451" />
    <path
       style="fill:none;stroke:#000000;stroke-width:0.264583px;stroke-linecap:butt;stroke-linejoin:miter;stroke-opacity:1"
       d="m 116.52785,262.08842 c -4.81333,4.32072 -9.87146,8.3834 -14.44,12.9622 -2.03487,2.03943 -1.08225,16.03814 3.77976,13.60715 0.81263,-0.40632 1.7003,-0.80246 2.26786,-1.51191 1.529,-1.91125 3.10206,-10.50507 0.75595,-12.85118 -1.50884,-1.50887 -4.15465,-0.75597 -6.04762,-0.75597"
       id="path453" />
    <path
       style="fill:none;stroke:#000000;stroke-width:0.264583px;stroke-linecap:butt;stroke-linejoin:miter;stroke-opacity:1"
       d="m 93.685907,257.71239 c -2.843634,5.07012 -5.970942,9.99125 -8.5309,15.21037 -2.842207,5.79453 0.751308,19.1303 9.07189,13.5496 3.808685,-2.55452 6.099113,-13.57587 4.561785,-18.18785 -0.628235,-1.88468 -6.108491,-5.19243 -6.041483,-6.79747 0.05408,-1.29542 0.625806,-2.51644 0.938708,-3.77465"
       id="path455" />
    <path
       style="fill:none;stroke:#000000;stroke-width:0.264583px;stroke-linecap:butt;stroke-linejoin:miter;stroke-opacity:1"
       d="m 65.247771,263.10132 c -2.768505,-0.34695 -6.856127,0.24732 -7.559525,3.77976 -0.346633,1.7408 -0.430723,3.60299 0,5.3249 0.284012,1.1354 4.495798,9.1459 6.075858,9.1459 1.006416,0 4.156456,-3.34634 4.535712,-3.77978 1.06249,-1.21426 2.403239,-2.29037 3.023809,-3.77976 1.285817,-3.08594 1.583068,-10.441 0,-13.60714 -1.278292,-2.55658 -6.088851,-4.49448 -8.315476,-2.26785"
       id="path457" />
  </g>
</svg>
